<?xml version="1.0" encoding="UTF-8"?>
<svg width="445px" height="154px" viewBox="0 0 445 154" version="1.1" xmlns="http://www.w3.org/2000/svg" xmlns:xlink="http://www.w3.org/1999/xlink">
    <!-- Generator: Sketch 54.1 (76490) - https://sketchapp.com -->
    <title>Group 4</title>
    <desc>Created with Sketch.</desc>
    <g id="Page-1" stroke="none" stroke-width="1" fill="none" fill-rule="evenodd">
        <g id="Group" transform="translate(-84.000000, -85.000000)">
            <g id="Group-2" transform="translate(84.616700, 85.741800)">
                <g id="Group-4" transform="translate(0.000000, -0.000000)">
                    <path d="M10.255,97.3522 C12.504,100.7272 15.382,103.2162 18.886,104.8162 C22.391,106.4182 26.003,107.2172 29.725,107.2172 C31.802,107.2172 33.921,106.8922 36.086,106.2432 C38.248,105.5952 40.217,104.6212 41.992,103.3232 C43.764,102.0252 45.214,100.4252 46.339,98.5202 C47.463,96.6182 48.027,94.4112 48.027,91.9012 C48.027,88.3532 46.902,85.6492 44.652,83.7882 C42.401,81.9282 39.61,80.3702 36.28,79.1152 C32.948,77.8612 29.314,76.6482 25.376,75.4802 C21.438,74.3122 17.803,72.6902 14.474,70.6132 C11.141,68.5362 8.35,65.7452 6.101,62.2402 C3.85,58.7362 2.726,53.9982 2.726,48.0272 C2.726,45.3462 3.31,42.4902 4.478,39.4602 C5.647,36.4322 7.484,33.6632 9.994,31.1532 C12.504,28.6432 15.726,26.5442 19.665,24.8572 C23.602,23.1692 28.34,22.3262 33.878,22.3262 C38.897,22.3262 43.698,23.0192 48.287,24.4032 C52.872,25.7882 56.896,28.6012 60.359,32.8402 L50.234,42.0562 C48.676,39.6342 46.47,37.6872 43.613,36.2142 C40.758,34.7442 37.514,34.0082 33.878,34.0082 C30.417,34.0082 27.539,34.4622 25.247,35.3712 C22.952,36.2802 21.114,37.4482 19.73,38.8762 C18.345,40.3032 17.371,41.8412 16.81,43.4842 C16.246,45.1282 15.966,46.6442 15.966,48.0272 C15.966,51.9212 17.09,54.9062 19.341,56.9832 C21.59,59.0602 24.38,60.7482 27.713,62.0462 C31.044,63.3432 34.678,64.5122 38.617,65.5502 C42.553,66.5892 46.187,68.0392 49.519,69.8982 C52.851,71.7612 55.641,74.2692 57.892,77.4282 C60.141,80.5872 61.267,84.9352 61.267,90.4732 C61.267,94.8862 60.423,98.8672 58.736,102.4142 C57.049,105.9632 54.777,108.9492 51.922,111.3712 C49.065,113.7942 45.69,115.6542 41.797,116.9532 C37.902,118.2502 33.749,118.8992 29.336,118.8992 C23.45,118.8992 17.868,117.8612 12.591,115.7842 C7.311,113.7072 3.116,110.5072 2.48689958e-14,106.1792 L10.255,97.3522 Z" id="Fill-5946" fill="#ABAE51"></path>
                    <path d="M140.8373,44.5223 C138.2403,41.1473 134.9503,38.5513 130.9723,36.7343 C126.9903,34.9173 122.8793,34.0083 118.6393,34.0083 C113.4483,34.0083 108.7523,34.9823 104.5573,36.9283 C100.3593,38.8763 96.7683,41.5373 93.7833,44.9123 C90.7983,48.2873 88.4803,52.2453 86.8383,56.7883 C85.1933,61.3313 84.3723,66.1993 84.3723,71.3913 C84.3723,76.2393 85.1513,80.8243 86.7083,85.1513 C88.2663,89.4783 90.5153,93.2863 93.4583,96.5733 C96.3993,99.8633 99.9913,102.4593 104.2313,104.3623 C108.4713,106.2663 113.2743,107.2173 118.6393,107.2173 C123.9173,107.2173 128.5473,106.1363 132.5293,103.9723 C136.5093,101.8103 139.8843,98.7803 142.6533,94.8863 L153.1683,102.8043 C152.4743,103.7573 151.2643,105.1203 149.5343,106.8923 C147.8013,108.6683 145.5103,110.4423 142.6533,112.2153 C139.7983,113.9893 136.3583,115.5473 132.3343,116.8873 C128.3103,118.2283 123.6583,118.8993 118.3803,118.8993 C111.1123,118.8993 104.5573,117.5143 98.7153,114.7463 C92.8753,111.9773 87.8973,108.3433 83.7883,103.8423 C79.6773,99.3443 76.5393,94.2593 74.3773,88.5903 C72.2143,82.9233 71.1323,77.1903 71.1323,71.3913 C71.1323,64.2973 72.3003,57.7423 74.6363,51.7263 C76.9733,45.7133 80.2383,40.5213 84.4373,36.1503 C88.6333,31.7813 93.6733,28.3843 99.5593,25.9603 C105.4433,23.5383 111.9333,22.3263 119.0293,22.3263 C125.0863,22.3263 131.0363,23.4943 136.8783,25.8303 C142.7183,28.1673 147.4993,31.7593 151.2213,36.6043 L140.8373,44.5223 Z" id="Fill-5948" fill="#ABAE51"></path>
                    <polygon id="Fill-5950" fill="#ABAE51" points="165.3687 24.6623 177.8297 24.6623 177.8297 62.8243 225.4687 62.8243 225.4687 24.6623 237.9297 24.6623 237.9297 116.5633 225.4687 116.5633 225.4687 74.5073 177.8297 74.5073 177.8297 116.5633 165.3687 116.5633"></polygon>
                    <path d="M314.1234,-1.42108547e-14 C316.1124,-1.42108547e-14 317.9524,0.693 319.6404,2.076 C321.3274,3.462 322.1714,5.237 322.1714,7.399 C322.1714,9.735 321.4124,11.682 319.8994,13.24 C318.3844,14.798 316.4594,15.576 314.1234,15.576 C311.7874,15.576 309.8594,14.798 308.3474,13.24 C306.8314,11.682 306.0754,9.735 306.0754,7.399 C306.0754,5.237 306.9194,3.462 308.6064,2.076 C310.2944,0.693 312.1314,-1.42108547e-14 314.1234,-1.42108547e-14 M287.6444,-1.42108547e-14 C289.6334,-1.42108547e-14 291.4734,0.693 293.1604,2.076 C294.8474,3.462 295.6914,5.237 295.6914,7.399 C295.6914,9.735 294.9334,11.682 293.4194,13.24 C291.9054,14.798 289.9804,15.576 287.6444,15.576 C285.3074,15.576 283.3804,14.798 281.8664,13.24 C280.3524,11.682 279.5964,9.735 279.5964,7.399 C279.5964,5.237 280.4404,3.462 282.1274,2.076 C283.8144,0.693 285.6524,-1.42108547e-14 287.6444,-1.42108547e-14 M300.8834,107.218 C306.1604,107.218 310.9214,106.244 315.1624,104.297 C319.4014,102.35 323.0354,99.733 326.0644,96.444 C329.0934,93.156 331.4304,89.285 333.0754,84.827 C334.7174,80.371 335.5404,75.633 335.5404,70.613 C335.5404,65.595 334.7174,60.857 333.0754,56.4 C331.4304,51.944 329.0934,48.071 326.0644,44.782 C323.0354,41.494 319.4014,38.876 315.1624,36.929 C310.9214,34.982 306.1604,34.009 300.8834,34.009 C295.6034,34.009 290.8434,34.982 286.6054,36.929 C282.3634,38.876 278.7294,41.494 275.7014,44.782 C272.6704,48.071 270.3344,51.944 268.6924,56.4 C267.0474,60.857 266.2254,65.595 266.2254,70.613 C266.2254,75.633 267.0474,80.371 268.6924,84.827 C270.3344,89.285 272.6704,93.156 275.7014,96.444 C278.7294,99.733 282.3634,102.35 286.6054,104.297 C290.8434,106.244 295.6034,107.218 300.8834,107.218 M300.8834,118.9 C293.8734,118.9 287.4254,117.666 281.5434,115.2 C275.6574,112.734 270.6174,109.339 266.4204,105.011 C262.2224,100.685 258.9354,95.58 256.5564,89.694 C254.1744,83.81 252.9864,77.45 252.9864,70.613 C252.9864,63.778 254.1744,57.418 256.5564,51.531 C258.9354,45.648 262.2224,40.543 266.4204,36.215 C270.6174,31.889 275.6574,28.491 281.5434,26.025 C287.4254,23.559 293.8734,22.326 300.8834,22.326 C307.8924,22.326 314.3384,23.559 320.2244,26.025 C326.1074,28.491 331.1474,31.889 335.3454,36.215 C339.5424,40.543 342.8294,45.648 345.2114,51.531 C347.5904,57.418 348.7814,63.778 348.7814,70.613 C348.7814,77.45 347.5904,83.81 345.2114,89.694 C342.8294,95.58 339.5424,100.685 335.3454,105.011 C331.1474,109.339 326.1074,112.734 320.2244,115.2 C314.3384,117.666 307.8924,118.9 300.8834,118.9" id="Fill-5952" fill="#ABAE51"></path>
                    <polygon id="Fill-5954" fill="#ABAE51" points="363.8365 24.6623 380.1915 24.6623 430.8155 100.2083 431.0745 100.2083 431.0745 24.6623 443.5355 24.6623 443.5355 116.5633 427.6995 116.5633 376.5565 41.0173 376.2975 41.0173 376.2975 116.5633 363.8365 116.5633"></polygon>
                    <path d="M74.2252,139.2233 C72.3422,136.9293 70.0252,134.7703 67.2702,132.7493 C64.5152,130.7313 61.2792,129.1683 57.5592,128.0663 C53.8412,126.9643 49.5932,126.8743 44.8192,127.7913 C42.5232,128.1593 40.0442,128.8923 37.3812,129.9943 C34.7172,131.0963 32.1242,132.3603 29.6002,133.7823 C27.0732,135.2073 24.6872,136.7223 22.4382,138.3283 C20.1862,139.9353 18.3272,141.4263 16.8592,142.8033 C16.9502,141.7023 17.2492,139.5223 17.7552,136.2613 C18.2582,133.0033 18.8562,129.2613 19.5452,125.0363 C20.2342,120.8143 20.9682,116.3373 21.7492,111.6073 C22.5282,106.8793 23.2402,102.4483 23.8842,98.3163 C24.5252,94.1843 25.1002,90.6033 25.6052,87.5733 C26.1092,84.5433 26.4082,82.5703 26.5002,81.6503 C26.5912,81.0093 26.4082,80.6183 25.9502,80.4793 C25.4902,80.3423 24.9622,80.3663 24.3662,80.5483 C23.7672,80.7343 23.1712,81.0783 22.5752,81.5813 C21.9772,82.0873 21.6332,82.6623 21.5422,83.3033 C21.3572,84.5903 21.0362,86.8633 20.5792,90.1213 C20.1182,93.3813 19.5902,97.1243 18.9942,101.3463 C18.3962,105.5713 17.7552,110.0233 17.0662,114.7063 C16.3772,119.3893 15.7342,123.7973 15.1382,127.9293 C14.5402,132.0613 14.0362,135.7103 13.6232,138.8783 C13.2102,142.0463 12.9112,144.2283 12.7282,145.4213 C12.5422,146.1573 12.7492,146.9353 13.3472,147.7623 C13.9432,148.5883 14.7462,148.6363 15.7582,147.9003 C17.6862,146.4323 19.7972,144.8933 22.0932,143.2863 C24.3882,141.6803 26.7522,140.1423 29.1862,138.6723 C31.6182,137.2043 34.0072,135.8963 36.3482,134.7473 C38.6902,133.5993 40.8702,132.7493 42.8912,132.1983 C47.4812,131.0963 51.3832,130.8693 54.5982,131.5103 C57.8112,132.1533 60.5422,133.2313 62.7932,134.7473 C65.0422,136.2613 66.9012,137.9833 68.3722,139.9123 C69.8392,141.8403 71.1262,143.5403 72.2282,145.0073 C72.7792,145.7433 73.5132,146.2473 74.4322,146.5233 C75.3482,146.7983 76.1982,146.8903 76.9802,146.7983 C77.7592,146.7083 78.3332,146.4783 78.7012,146.1093 C79.0682,145.7433 79.0682,145.2833 78.7012,144.7323 C77.5992,143.3543 76.1062,141.5193 74.2252,139.2233" id="Fill-5956" fill="#1D1D1B"></path>
                    <path d="M158.5833,102.448 C159.8683,102.816 160.9933,102.655 161.9573,101.966 C162.9213,101.278 163.3563,100.657 163.2653,100.107 C163.0813,99.098 162.6673,98.454 162.0263,98.178 C161.3823,97.903 160.6013,97.766 159.6843,97.766 C159.6843,97.582 159.6373,97.399 159.5473,97.215 C159.2723,96.756 158.9483,96.526 158.5833,96.526 C157.7563,96.526 157.1373,96.801 156.7233,97.352 C156.3103,97.903 156.1033,98.523 156.1033,99.212 C156.1033,99.9 156.3103,100.567 156.7233,101.208 C157.1373,101.853 157.7563,102.265 158.5833,102.448" id="Fill-5958" fill="#1D1D1B"></path>
                    <path d="M297.9657,102.448 C299.2507,102.816 300.3757,102.655 301.3397,101.966 C302.3037,101.278 302.7387,100.657 302.6477,100.107 C302.4637,99.098 302.0497,98.454 301.4087,98.178 C300.7647,97.903 299.9847,97.766 299.0667,97.766 C299.0667,97.582 299.0197,97.399 298.9297,97.215 C298.6547,96.756 298.3317,96.526 297.9657,96.526 C297.1387,96.526 296.5197,96.801 296.1057,97.352 C295.6927,97.903 295.4857,98.523 295.4857,99.212 C295.4857,99.9 295.6927,100.567 296.1057,101.208 C296.5197,101.853 297.1387,102.265 297.9657,102.448" id="Fill-5960" fill="#1D1D1B"></path>
                    <path d="M217.5302,116.0838 C216.9792,117.6468 216.5422,119.3208 216.2212,121.1108 C215.8992,122.9018 215.7392,124.7398 215.7392,126.6198 C215.7392,127.3198 215.7862,128.0278 215.8562,128.7398 C212.9422,131.1988 209.7932,133.7268 206.3752,136.3308 C202.5182,139.2708 198.7522,141.8868 195.0802,144.1818 C194.3452,144.6418 193.4492,145.1238 192.3952,145.6278 C191.3392,146.1338 190.2822,146.5698 189.2272,146.9358 C188.1702,147.3038 187.1372,147.5558 186.1282,147.6938 C185.1172,147.8308 184.2452,147.8098 183.5112,147.6238 C181.9492,147.1668 180.9162,146.2258 180.4132,144.8008 C179.9072,143.3788 179.7232,141.7498 179.8622,139.9118 C179.9992,138.0758 180.3192,136.1708 180.8252,134.1958 C180.9862,133.5648 181.1382,132.9698 181.2852,132.3898 C181.5232,132.0528 181.7622,131.7248 181.9972,131.3718 C182.2732,131.0068 182.4102,130.5008 182.4102,129.8568 C182.4102,129.3888 182.3442,128.9848 182.2462,128.6128 C182.7562,126.6868 183.2472,125.0278 183.7182,123.6598 C184.2222,122.1908 184.6582,120.8828 185.0262,119.7338 C185.3922,118.5868 185.7362,117.5538 186.0592,116.6348 C186.3802,115.7178 186.6792,114.7988 186.9552,113.8798 C192.0032,113.4218 196.6652,112.9848 200.9352,112.5718 C205.2042,112.1588 209.8632,111.7238 214.9142,111.2628 C216.4912,111.1008 218.0782,110.9458 219.6572,110.7858 C218.8302,112.5458 218.1202,114.3118 217.5302,116.0838 M231.7162,99.5558 C232.8182,98.3638 234.2412,97.0768 235.9862,95.6988 C237.7292,94.3218 239.5202,93.1068 241.3572,92.0498 C243.1932,90.9948 244.9602,90.2138 246.6612,89.7078 C248.3582,89.2048 249.7122,89.2268 250.7242,89.7768 C251.3652,90.1448 251.3202,91.3388 250.5862,93.3578 C249.8492,95.3788 248.5202,97.8338 246.5912,100.7268 C245.5332,102.3148 244.2992,103.9868 242.9212,105.7278 C237.1892,106.3508 231.4282,106.9648 225.6442,107.5698 C227.2942,104.9908 229.3092,102.3208 231.7162,99.5558 M94.4012,123.2458 C96.0542,122.1438 97.2012,121.9848 97.8452,122.7638 C98.4862,123.5448 98.4402,124.4408 97.7072,125.4498 C97.2462,126.3688 96.3302,126.8508 94.9522,126.8958 C93.5752,126.9438 92.2432,126.6438 90.9582,126.0008 C91.8752,124.8988 93.0242,123.9818 94.4012,123.2458 M430.5992,144.7328 C429.4962,143.3548 428.0032,141.5188 426.1222,139.2228 C424.2392,136.9288 421.9222,134.7698 419.1672,132.7498 C416.4122,130.7308 413.1762,129.1688 409.4562,128.0668 C405.7382,126.9648 401.4902,126.8738 396.7162,127.7918 C394.4202,128.1588 391.9412,128.8928 389.2782,129.9948 C386.6152,131.0968 384.0212,132.3598 381.4972,133.7828 C378.9702,135.2068 376.5842,136.7218 374.3352,138.3278 C372.0832,139.9348 370.2242,141.4268 368.7562,142.8038 C368.8472,141.7028 369.1462,139.5228 369.6522,136.2618 C370.1552,133.0038 370.7542,129.2608 371.4422,125.0368 C372.1312,120.8138 372.8652,116.3378 373.6462,111.6078 C374.4252,106.8788 375.1372,102.4478 375.7812,98.3168 C376.4222,94.1848 376.9972,90.6038 377.5022,87.5738 C378.0062,84.5428 378.3052,82.5698 378.3982,81.6508 C378.4882,81.0098 378.3052,80.6178 377.8472,80.4798 C377.3872,80.3418 376.8592,80.3658 376.2632,80.5488 C375.6652,80.7338 375.0682,81.0788 374.4722,81.5818 C373.8742,82.0878 373.5302,82.6628 373.4392,83.3038 C373.2552,84.5908 372.9332,86.8628 372.4762,90.1218 C372.0152,93.3818 371.4872,97.1238 370.8912,101.3468 C370.2932,105.5708 369.6522,110.0238 368.9632,114.7068 C368.3152,119.1118 367.7092,123.2628 367.1432,127.1808 C363.1162,125.1378 358.9732,123.6588 354.7102,122.7638 C350.1172,121.7998 345.6202,121.4558 341.2122,121.7308 C336.8042,122.0068 332.6942,122.8328 328.8852,124.2108 C326.0822,125.2228 323.5962,126.4898 321.4142,127.9988 C321.2422,127.6838 321.0262,127.5158 320.7602,127.5158 C320.4372,127.5158 320.0472,127.9288 319.5892,128.7548 C319.3012,129.2218 319.0082,129.6648 318.7142,130.0998 C317.6852,130.9508 316.6902,131.9638 315.7312,133.1628 C315.2102,133.8148 314.7552,134.4898 314.3562,135.1828 C313.1842,136.2228 311.9672,137.0678 310.7052,137.7078 C307.4452,139.3608 304.2542,140.0498 301.1332,139.7738 C298.0112,139.4988 295.0942,138.3508 292.3872,136.3308 C289.6772,134.3118 287.4972,131.6948 285.8442,128.4798 C285.4652,127.7238 284.9882,127.3948 284.4232,127.4498 C284.3182,127.4098 284.2052,127.3778 284.0542,127.3778 C283.6872,127.3778 283.2742,127.4468 282.8152,127.5848 C282.3542,127.7228 281.9892,127.9288 281.7132,128.2038 C279.1422,130.1318 276.2732,131.9708 273.1052,133.7138 C269.9372,135.4588 266.5632,136.9738 262.9812,138.2588 C259.4002,139.5458 255.6582,140.5548 251.7562,141.2888 C247.8532,142.0248 243.8372,142.3458 239.7052,142.2538 C237.8672,142.2538 235.8012,142.0938 233.5072,141.7708 C231.2102,141.4508 229.0302,140.7848 226.9652,139.7738 C224.8992,138.7648 223.1302,137.2948 221.6622,135.3668 C220.1922,133.4378 219.4112,130.8218 219.3212,127.5158 C219.5032,122.5578 220.5362,117.8978 222.4192,113.5358 C222.8702,112.4908 223.3942,111.4278 223.9852,110.3498 C229.4672,109.7958 234.9592,109.2478 240.4642,108.7098 C240.0532,109.1918 239.6552,109.6688 239.2232,110.1608 C236.2382,113.5598 232.9082,116.8198 229.2372,119.9408 C228.4112,120.6768 228.5482,121.1108 229.6502,121.2488 C230.7522,121.3858 232.0822,120.9048 233.6452,119.8028 C236.5822,117.6918 239.3372,115.3738 241.9082,112.8468 C243.5152,111.2688 244.9922,109.6998 246.3672,108.1378 C249.3582,107.8488 252.3402,107.5538 255.3392,107.2688 C268.8822,105.9838 282.5412,104.8828 296.3142,103.9638 C296.7722,103.9638 297.0032,103.6428 297.0032,102.9988 C297.0032,102.3578 296.7722,102.0348 296.3142,102.0348 C282.9072,102.0348 269.6392,102.7708 256.5092,104.2388 C253.9982,104.5198 251.4572,104.7908 248.9362,105.0688 C250.8102,102.6928 252.3532,100.4638 253.5472,98.3848 C254.7862,96.2288 255.5892,94.5068 255.9582,93.2198 C256.4152,91.3848 256.2552,89.7318 255.4752,88.2618 C254.6942,86.7948 253.2032,85.9678 250.9992,85.7828 C248.7032,85.6928 246.4992,85.9898 244.3872,86.6778 C242.2742,87.3668 240.3012,88.2398 238.4662,89.2948 C236.6272,90.3518 234.9752,91.5218 233.5072,92.8068 C232.0372,94.0938 230.8432,95.1958 229.9262,96.1128 C227.1712,98.7768 224.7132,101.8758 222.5572,105.4098 C222.0202,106.2898 221.5132,107.1708 221.0352,108.0538 C219.5882,108.2048 218.1562,108.3598 216.7052,108.5088 C211.6542,108.9688 206.8782,109.4038 202.3812,109.8168 C197.8812,110.2298 192.9222,110.6668 187.5062,111.1258 C188.1472,109.1068 188.7662,107.4298 189.3652,106.0978 C189.9612,104.7688 190.3512,103.4598 190.5362,102.1728 C190.6262,101.5318 190.4672,101.1398 190.0542,101.0028 C189.6402,100.8638 189.1592,100.8878 188.6082,101.0708 C188.0572,101.2568 187.5062,101.5768 186.9552,102.0348 C186.4042,102.4958 186.0812,102.9988 185.9902,103.5498 C185.5302,104.5618 185.1172,105.7088 184.7512,106.9938 C184.3832,108.2798 183.9702,109.7028 183.5112,111.2628 C180.1132,111.5388 176.9902,111.8138 174.1462,112.0888 C171.2982,112.3648 168.5672,112.5718 165.9512,112.7098 C163.3332,112.8468 160.7402,112.9398 158.1682,112.9848 C155.5992,113.0328 152.8892,113.0088 150.0422,112.9158 C148.7582,112.9158 148.0682,113.1908 147.9762,113.7418 C147.8862,114.2928 148.5742,114.6158 150.0422,114.7068 C152.7972,114.9818 155.3452,115.1668 157.6862,115.2578 C160.0282,115.3498 162.4382,115.3738 164.9172,115.3258 C167.3972,115.2808 170.0612,115.1668 172.9062,114.9818 C175.7512,114.7988 179.0112,114.5688 182.6852,114.2928 C182.4092,115.3048 182.0872,116.2908 181.7212,117.2548 C181.3532,118.2188 180.9642,119.2758 180.5502,120.4228 C180.1372,121.5718 179.7232,122.8798 179.3112,124.3478 C178.8972,125.8178 178.4152,127.5628 177.8642,129.5818 C177.4772,130.7448 177.1252,132.0048 176.8052,133.3498 C175.0822,135.2668 173.2562,136.7268 171.3232,137.7078 C168.0632,139.3608 164.8712,140.0498 161.7512,139.7738 C158.6282,139.4988 155.7122,138.3508 153.0052,136.3308 C150.2952,134.3118 148.1152,131.6948 146.4622,128.4798 C146.0022,127.5628 145.4062,127.2408 144.6722,127.5158 C143.9362,127.7918 143.4322,128.1138 143.1572,128.4798 C143.1182,128.6228 143.0962,128.7808 143.0852,128.9458 C137.3762,131.9258 131.4152,134.6908 125.1842,137.2258 C118.5262,139.9348 111.8932,141.7948 105.2822,142.8038 C103.6292,143.0798 101.9762,143.1958 100.3242,143.1488 C98.6712,143.1028 97.0872,142.8518 95.5722,142.3908 C94.0572,141.9328 92.6792,141.2668 91.4402,140.3938 C90.2002,139.5228 89.2582,138.3508 88.6162,136.8818 C87.9732,135.5968 87.7662,134.2188 87.9972,132.7498 C88.2252,131.2818 88.7072,129.8568 89.4432,128.4798 C90.7282,129.3058 92.0812,129.7668 93.5062,129.8568 C94.9282,129.9498 96.2602,129.7878 97.5002,129.3748 C98.7402,128.9618 99.8422,128.3898 100.8062,127.6528 C101.7702,126.9198 102.4802,126.0928 102.9412,125.1738 C103.2162,124.5328 103.3542,123.8198 103.3542,123.0388 C103.3542,122.2608 103.1002,121.5718 102.5962,120.9738 C102.0912,120.3778 101.3332,119.8948 100.3242,119.5268 C99.3122,119.1608 97.9832,119.0238 96.3302,119.1138 C93.8502,119.3898 91.6682,120.4228 89.7882,122.2128 C87.9042,124.0038 86.4582,126.1168 85.4492,128.5488 C84.4372,130.9828 84.0032,133.4858 84.1402,136.0548 C84.2782,138.6268 85.1732,140.8758 86.8262,142.8038 C88.4792,144.7328 90.4972,146.0188 92.8862,146.6608 C95.2732,147.3038 97.7762,147.5788 100.3932,147.4868 C103.0102,147.3968 105.6032,147.0518 108.1752,146.4538 C110.7442,145.8578 112.9952,145.2388 114.9242,144.5938 C118.5952,143.3098 123.0952,141.4958 128.4212,139.1538 C133.4742,136.9318 138.4862,134.2198 143.4572,131.0458 C143.6762,131.6768 143.9892,132.3808 144.3962,133.1628 C145.9572,136.1018 148.1602,138.6028 151.0082,140.6688 C153.8532,142.7348 157.0202,143.9058 160.5112,144.1818 C164.0002,144.4568 167.6262,143.6308 171.3922,141.7028 C172.9232,140.9178 174.4142,139.8698 175.8692,138.5838 C175.7732,139.4398 175.6992,140.2958 175.6602,141.1518 C175.5682,143.1718 175.7752,145.0768 176.2802,146.8668 C176.7842,148.6578 177.7272,150.1038 179.1042,151.2058 C180.6642,152.3078 182.5692,152.7208 184.8202,152.4448 C187.0692,152.1698 189.3172,151.5288 191.5692,150.5168 C193.8182,149.5078 195.9522,148.3368 197.9732,147.0048 C199.9922,145.6748 201.5542,144.5488 202.6562,143.6308 C203.7582,142.9888 205.0192,142.0468 206.4442,140.8068 C207.8662,139.5678 209.2672,138.2818 210.6442,136.9498 C212.0222,135.6198 213.3302,134.3118 214.5702,133.0248 C215.1672,132.4058 215.7252,131.8318 216.2472,131.2978 C216.3252,131.6658 216.4022,132.0338 216.4972,132.4058 C217.0002,134.3808 217.8502,136.2408 219.0452,137.9828 C221.1562,141.0128 224.1172,143.1268 227.9292,144.3188 C231.7382,145.5138 235.6632,146.1568 239.7052,146.2468 C241.9082,146.2468 244.1342,146.1338 246.3852,145.9028 C248.6342,145.6748 250.9992,145.2618 253.4782,144.6638 C255.9582,144.0668 258.6192,143.2648 261.4672,142.2538 C264.3112,141.2438 267.4802,139.9588 270.9702,138.3968 C273.7252,137.1118 276.3182,135.5728 278.7522,133.7828 C280.3002,132.6428 281.5892,131.5558 282.6732,130.5088 C282.8852,131.2678 283.2502,132.1498 283.7792,133.1628 C285.3392,136.1018 287.5432,138.6028 290.3902,140.6688 C293.2352,142.7348 296.4032,143.9058 299.8942,144.1818 C303.3822,144.4568 307.0092,143.6308 310.7742,141.7028 C311.3882,141.3878 311.9942,141.0178 312.5962,140.6228 C312.5522,141.1458 312.5322,141.6668 312.5642,142.1838 C312.6542,143.6988 313.2522,145.0078 314.3542,146.1098 C315.0882,146.9358 316.1212,147.6478 317.4532,148.2448 C318.7832,148.8428 320.2292,149.3248 321.7922,149.6908 C323.3522,150.0588 324.8912,150.3098 326.4062,150.4488 C327.9212,150.5858 329.1822,150.6088 330.1932,150.5168 C332.2122,150.4268 334.0032,150.2418 335.5652,149.9658 C337.1252,149.6908 338.5952,149.3248 339.9732,148.8648 C341.3502,148.4058 342.7492,147.8548 344.1732,147.2118 C345.5962,146.5698 347.1802,145.7888 348.9252,144.8698 C349.1082,144.7798 349.2702,144.5728 349.4072,144.2498 C349.5452,143.9298 349.5662,143.6088 349.4762,143.2858 C349.3832,142.9648 349.2222,142.7138 348.9942,142.5288 C348.7642,142.3458 348.3742,142.3458 347.8242,142.5288 C343.1402,144.3658 338.7092,145.6508 334.5322,146.3848 C330.3532,147.1208 325.9692,146.8908 321.3792,145.6958 C318.4392,144.6878 316.9712,142.9418 316.9712,140.4628 C316.9712,137.9828 318.1632,135.5968 320.5522,133.3008 C322.5712,131.3718 325.2802,129.7668 328.6782,128.4798 C332.0742,127.1948 335.8622,126.3448 340.0412,125.9318 C344.2182,125.5188 348.6262,125.6108 353.2642,126.2068 C357.8822,126.8028 362.3892,127.9688 366.7812,129.7018 C366.2942,133.1038 365.8722,136.1768 365.5202,138.8778 C365.1072,142.0468 364.8082,144.2288 364.6252,145.4208 C364.4392,146.1568 364.6462,146.9358 365.2442,147.7628 C365.8402,148.5888 366.6432,148.6358 367.6552,147.8998 C369.5832,146.4328 371.6942,144.8928 373.9902,143.2858 C376.2852,141.6808 378.6492,140.1418 381.0832,138.6718 C383.5152,137.2038 385.9042,135.8958 388.2452,134.7468 C390.5872,133.5998 392.7672,132.7498 394.7882,132.1988 C399.3782,131.0968 403.2802,130.8688 406.4952,131.5098 C409.7082,132.1538 412.4392,133.2318 414.6902,134.7468 C416.9392,136.2618 418.7982,137.9828 420.2692,139.9118 C421.7362,141.8398 423.0242,143.5398 424.1252,145.0078 C424.6762,145.7438 425.4092,146.2468 426.3292,146.5228 C427.2452,146.7978 428.0952,146.8908 428.8772,146.7978 C429.6562,146.7078 430.2302,146.4778 430.5992,146.1098 C430.9652,145.7438 430.9652,145.2838 430.5992,144.7328" id="Fill-5962" fill="#1D1D1B"></path>
                </g>
            </g>
        </g>
    </g>
</svg>